<svg xmlns="http://www.w3.org/2000/svg" width="1024" height="1024" viewBox="0 0 1024 1024" fill="none">
  <rect x="244" y="188" width="536" height="648" rx="132" fill="#FFF8F1"/>
  <rect x="300" y="244" width="424" height="536" rx="98" fill="#23314D"/>
  <path d="M426 380C426 347.967 451.967 322 484 322H540C572.033 322 598 347.967 598 380V500C598 533.28 579.881 563.918 550.742 580.008L527.017 593.104C517.788 598.199 506.212 598.199 496.983 593.104L473.258 580.008C444.119 563.918 426 533.28 426 500V380Z" fill="#FF996D"/>
  <rect x="384" y="626" width="258" height="28" rx="14" fill="#B7D9FF"/>
  <rect x="384" y="678" width="194" height="28" rx="14" fill="#B7D9FF" fill-opacity="0.82"/>
</svg>
